<svg width="20" height="20" viewBox="0 0 20 20" fill="none" xmlns="http://www.w3.org/2000/svg">
<path d="M19.125 8.00032C18.9687 7.84409 18.7568 7.75633 18.5359 7.75633C18.3149 7.75633 18.103 7.84409 17.9467 8.00032L8.87002 17.1161C8.48311 17.5031 8.02378 17.8101 7.51824 18.0195C7.0127 18.229 6.47085 18.3368 5.92365 18.3368C4.81851 18.3369 3.75861 17.898 2.9771 17.1166C2.1956 16.3352 1.75651 15.2753 1.75643 14.1702C1.75635 13.0651 2.19529 12.0052 2.97669 11.2236L11.7675 2.39698C12.2376 1.93439 12.8714 1.67629 13.5309 1.6789C14.1904 1.68151 14.8222 1.94461 15.2886 2.4109C15.755 2.8772 16.0183 3.5089 16.021 4.16841C16.0238 4.82792 15.7658 5.4618 15.3034 5.93198L6.51252 14.7586C6.35398 14.9105 6.14291 14.9953 5.92335 14.9953C5.7038 14.9953 5.49273 14.9105 5.33419 14.7586C5.17796 14.6024 5.0902 14.3905 5.0902 14.1695C5.0902 13.9485 5.17796 13.7366 5.33419 13.5803L13.1609 5.71782C13.3127 5.56065 13.3966 5.35015 13.3947 5.13165C13.3928 4.91315 13.3052 4.70414 13.1507 4.54963C12.9962 4.39513 12.7872 4.30749 12.5687 4.30559C12.3502 4.30369 12.1397 4.38769 11.9825 4.53948L4.15585 12.402C3.92366 12.6341 3.73947 12.9098 3.61381 13.2131C3.48815 13.5164 3.42347 13.8416 3.42347 14.1699C3.42347 14.4982 3.48815 14.8234 3.61381 15.1267C3.73947 15.43 3.92366 15.7057 4.15585 15.9378C4.6322 16.3924 5.26534 16.646 5.92377 16.646C6.5822 16.646 7.21534 16.3924 7.69169 15.9378L16.4817 7.11032C17.2467 6.32557 17.6717 5.27103 17.6647 4.17513C17.6577 3.07923 17.2192 2.03022 16.4442 1.25534C15.6692 0.480457 14.6201 0.0421048 13.5242 0.0352381C12.4283 0.0283715 11.3738 0.453543 10.5892 1.21865L1.79835 10.0453C0.704335 11.1393 0.0897217 12.6231 0.0897217 14.1703C0.0897217 15.7175 0.704335 17.2013 1.79835 18.2953C2.89237 19.3893 4.37618 20.0039 5.92335 20.0039C7.47053 20.0039 8.95433 19.3893 10.0484 18.2953L19.125 9.18198C19.2029 9.10454 19.2647 9.01248 19.3068 8.91109C19.349 8.80969 19.3707 8.70096 19.3707 8.59115C19.3707 8.48134 19.349 8.37261 19.3068 8.27122C19.2647 8.16982 19.2029 8.07776 19.125 8.00032Z" fill="#0188DA"/>
</svg>
