<svg width="14" height="14" viewBox="0 0 14 14" fill="none" xmlns="http://www.w3.org/2000/svg">
<g clip-path="url(#clip0_671_5513)">
<path d="M7 0C5.61553 0 4.26216 0.410543 3.11101 1.17971C1.95987 1.94888 1.06266 3.04213 0.532846 4.32122C0.003033 5.6003 -0.13559 7.00777 0.134506 8.36563C0.404603 9.7235 1.07129 10.9708 2.05026 11.9497C3.02922 12.9287 4.2765 13.5954 5.63437 13.8655C6.99224 14.1356 8.3997 13.997 9.67879 13.4672C10.9579 12.9373 12.0511 12.0401 12.8203 10.889C13.5895 9.73785 14 8.38447 14 7C13.998 5.1441 13.2599 3.36479 11.9475 2.05247C10.6352 0.74015 8.8559 0.0020073 7 0V0ZM7.58334 6.92942C7.5834 7.0283 7.55832 7.12557 7.51047 7.2121C7.46261 7.29863 7.39354 7.37158 7.30975 7.42408L5.06975 8.82408C5.00464 8.86476 4.93215 8.89221 4.85643 8.90488C4.7807 8.91754 4.70323 8.91516 4.62842 8.89788C4.55362 8.8806 4.48295 8.84876 4.42045 8.80417C4.35795 8.75958 4.30485 8.70311 4.26417 8.638C4.22349 8.57289 4.19604 8.5004 4.18338 8.42467C4.17071 8.34895 4.17309 8.27147 4.19037 8.19667C4.20765 8.12186 4.23949 8.0512 4.28408 7.9887C4.32867 7.9262 4.38514 7.87309 4.45025 7.83242L6.41667 6.60625V4.08333C6.41667 3.92862 6.47813 3.78025 6.58752 3.67085C6.69692 3.56146 6.84529 3.5 7 3.5C7.15471 3.5 7.30309 3.56146 7.41248 3.67085C7.52188 3.78025 7.58334 3.92862 7.58334 4.08333V6.92942Z" fill="#8CA0B4"/>
</g>
<defs>
<clipPath id="clip0_671_5513">
<rect width="14" height="14" fill="white"/>
</clipPath>
</defs>
</svg>
