<svg width="14" height="14" viewBox="0 0 14 14" fill="none" xmlns="http://www.w3.org/2000/svg">
<g clip-path="url(#clip0_671_5518)">
<path d="M8.1665 4.08333V0.268333C8.70612 0.472112 9.19626 0.788265 9.60442 1.19583L11.6368 3.22933C12.0448 3.63701 12.3612 4.12702 12.5648 4.66667H8.74984C8.59513 4.66667 8.44675 4.60521 8.33736 4.49581C8.22796 4.38642 8.1665 4.23804 8.1665 4.08333ZM12.8332 6.11625V11.0833C12.8322 11.8566 12.5247 12.5979 11.9779 13.1447C11.4311 13.6915 10.6898 13.9991 9.9165 14H4.08317C3.30991 13.9991 2.56858 13.6915 2.0218 13.1447C1.47502 12.5979 1.16743 11.8566 1.1665 11.0833V2.91667C1.16743 2.1434 1.47502 1.40208 2.0218 0.855295C2.56858 0.308514 3.30991 0.00092625 4.08317 0L6.71692 0C6.812 0 6.90592 0.00758333 6.99984 0.014V4.08333C6.99984 4.54746 7.18421 4.99258 7.5124 5.32077C7.84059 5.64896 8.28571 5.83333 8.74984 5.83333H12.8192C12.8256 5.92725 12.8332 6.02117 12.8332 6.11625ZM9.7555 8.34808C9.64887 8.23615 9.50216 8.17113 9.3476 8.1673C9.19305 8.16347 9.0433 8.22115 8.93125 8.32767L6.83125 10.3291C6.77514 10.3855 6.70807 10.4299 6.63417 10.4594C6.56027 10.489 6.48111 10.5031 6.40155 10.5009C6.32199 10.4987 6.24371 10.4803 6.17155 10.4467C6.09938 10.4132 6.03485 10.3652 5.98192 10.3057L5.055 9.48092C4.99778 9.4299 4.93107 9.39065 4.85868 9.36541C4.78629 9.34018 4.70963 9.32945 4.63309 9.33383C4.47852 9.3427 4.33379 9.4126 4.23075 9.52817C4.17974 9.58539 4.14049 9.6521 4.11525 9.72449C4.09001 9.79689 4.07928 9.87354 4.08367 9.95008C4.09253 10.1047 4.16244 10.2494 4.278 10.3524L5.17867 11.1539C5.50515 11.4805 5.94745 11.6648 6.40921 11.6666C6.87097 11.6685 7.31474 11.4877 7.64384 11.1638L9.73509 9.17233C9.84702 9.06569 9.91204 8.91898 9.91587 8.76443C9.9197 8.60988 9.86202 8.46013 9.7555 8.34808Z" fill="#8CA0B4"/>
</g>
<defs>
<clipPath id="clip0_671_5518">
<rect width="14" height="14" fill="white"/>
</clipPath>
</defs>
</svg>
