<svg width="17" height="16" viewBox="0 0 17 16" fill="none" xmlns="http://www.w3.org/2000/svg">
<path d="M8.39999 4C6.1552 4 4.33333 5.792 4.33333 8C4.33333 10.208 6.1552 12 8.39999 12C10.6448 12 12.4667 10.208 12.4667 8C12.4667 5.792 10.6448 4 8.39999 4ZM8.39999 0C3.9104 0 0.266663 3.584 0.266663 8C0.266663 12.416 3.9104 16 8.39999 16C12.8896 16 16.5333 12.416 16.5333 8C16.5333 3.584 12.8896 0 8.39999 0ZM8.39999 14.4C4.80506 14.4 1.89333 11.536 1.89333 8C1.89333 4.464 4.80506 1.6 8.39999 1.6C11.9949 1.6 14.9067 4.464 14.9067 8C14.9067 11.536 11.9949 14.4 8.39999 14.4Z" fill="#0188DA"/>
</svg>
