<svg width="14" height="14" viewBox="0 0 14 14" fill="none" xmlns="http://www.w3.org/2000/svg">
<g id="search" clip-path="url(#clip0_671_4974)">
<path id="Shape" fill-rule="evenodd" clip-rule="evenodd" d="M9.783 9.05882L9.53594 8.81176C10.3595 7.90588 10.8536 6.67059 10.8536 5.35294C10.8536 2.38824 8.46535 0 5.50065 0C2.53594 0 0.147705 2.38824 0.147705 5.35294C0.147705 8.31765 2.53594 10.7059 5.50065 10.7059C6.81829 10.7059 8.05359 10.2118 8.95947 9.38824L9.20653 9.63529V10.2941L12.5006 13.5882L13.7359 12.3529L10.4418 9.05882H9.783ZM5.50065 9.05882C3.44182 9.05882 1.79476 7.41176 1.79476 5.35294C1.79476 3.29412 3.44182 1.64706 5.50065 1.64706C7.55947 1.64706 9.20653 3.29412 9.20653 5.35294C9.20653 7.41176 7.55947 9.05882 5.50065 9.05882Z" fill="#8CA0B4"/>
</g>
<defs>
<clipPath id="clip0_671_4974">
<rect width="13.0058" height="14" fill="white" transform="translate(0.147705)"/>
</clipPath>
</defs>
</svg>
