<svg width="16" height="16" viewBox="0 0 16 16" fill="none" xmlns="http://www.w3.org/2000/svg">
<path d="M8 0C6.41775 0 4.87104 0.469192 3.55544 1.34824C2.23985 2.22729 1.21447 3.47672 0.608967 4.93853C0.00346629 6.40034 -0.15496 8.00887 0.153721 9.56072C0.462403 11.1126 1.22433 12.538 2.34315 13.6569C3.46197 14.7757 4.88743 15.5376 6.43928 15.8463C7.99113 16.155 9.59966 15.9965 11.0615 15.391C12.5233 14.7855 13.7727 13.7602 14.6518 12.4446C15.5308 11.129 16 9.58225 16 8C15.9977 5.87897 15.1541 3.84547 13.6543 2.34568C12.1545 0.845886 10.121 0.00229405 8 0V0ZM5.33334 5.33333C5.68696 5.33333 6.0261 5.47381 6.27615 5.72386C6.52619 5.97391 6.66667 6.31305 6.66667 6.66667C6.66667 7.33333 6.07 7.33333 5.33334 7.33333C4.59667 7.33333 4 7.33333 4 6.66667C4 6.31305 4.14048 5.97391 4.39053 5.72386C4.64058 5.47381 4.97972 5.33333 5.33334 5.33333ZM11.7773 10.4973C10.7188 11.4017 9.39053 11.9301 8 12C6.60948 11.9301 5.28125 11.4017 4.22267 10.4973C4.09077 10.3796 4.01105 10.2142 4.00105 10.0377C3.99609 9.9503 4.00841 9.86277 4.03728 9.78012C4.06616 9.69747 4.11103 9.62131 4.16934 9.556C4.22764 9.49069 4.29824 9.4375 4.37711 9.39948C4.45597 9.36145 4.54155 9.33933 4.62896 9.33438C4.80549 9.32438 4.97877 9.38491 5.11067 9.50267C5.92548 10.1881 6.93761 10.5958 8 10.6667C9.06302 10.5958 10.0757 10.1875 10.8907 9.50133C10.9561 9.44312 11.0323 9.39835 11.115 9.36959C11.1977 9.34083 11.2852 9.32864 11.3727 9.33371C11.4601 9.33879 11.5456 9.36103 11.6244 9.39917C11.7033 9.43731 11.7738 9.4906 11.832 9.556C11.8902 9.6214 11.935 9.69762 11.9638 9.78032C11.9925 9.86302 12.0047 9.95058 11.9996 10.038C11.9946 10.1254 11.9723 10.211 11.9342 10.2898C11.896 10.3686 11.8427 10.4391 11.7773 10.4973ZM10.6667 7.33333C9.93 7.33333 9.33334 7.33333 9.33334 6.66667C9.33334 6.31305 9.47381 5.97391 9.72386 5.72386C9.97391 5.47381 10.313 5.33333 10.6667 5.33333C11.0203 5.33333 11.3594 5.47381 11.6095 5.72386C11.8595 5.97391 12 6.31305 12 6.66667C12 7.33333 11.4033 7.33333 10.6667 7.33333Z" fill="#8CA0B4"/>
</svg>
