<svg width="8" height="11" viewBox="0 0 8 11" fill="none" xmlns="http://www.w3.org/2000/svg">
<path d="M6.93581 4.25193C6.82289 4.25193 6.71865 4.2693 6.61442 4.30405C6.60573 4.29971 6.5927 4.29536 6.57967 4.29102C6.38858 3.98266 6.0585 3.7959 5.68933 3.7959C5.56338 3.7959 5.44177 3.81762 5.32451 3.85671C5.13341 3.53531 4.79899 3.33987 4.42113 3.33987C4.35164 3.33987 4.2865 3.34422 4.22135 3.35724V2.77092C4.22135 2.16288 3.75663 1.68948 3.16163 1.68948C2.56227 1.68948 2.07584 2.17591 2.07584 2.77092V5.62871L1.90646 5.45932C1.71102 5.26822 1.44174 5.15965 1.14641 5.15965C0.846733 5.15965 0.555743 5.27257 0.368988 5.45932C-0.0392668 5.86758 -0.173904 6.57551 0.303841 7.05325L2.74468 9.48107C2.80114 9.53753 2.86629 9.5853 2.93578 9.63308C3.39181 10.0022 3.93905 10.2498 5.09432 10.2498C7.77838 10.2498 7.99988 8.67759 7.99988 7.06628V5.32903C8.00856 4.72533 7.54819 4.25193 6.93581 4.25193ZM1.42003 4.77745C1.45912 4.80785 1.50255 4.82088 1.54598 4.82088C1.61113 4.82088 1.67627 4.79048 1.71536 4.73402C1.78485 4.63847 1.76748 4.50383 1.67193 4.43434C1.10298 4.01306 0.777243 3.36159 0.777243 2.64931C0.777243 1.42021 1.77616 0.425627 3.00093 0.425627C4.23004 0.425627 5.22462 1.42455 5.22462 2.64931C5.22462 2.79698 5.21159 2.94899 5.18118 3.09231C5.15947 3.20523 5.2333 3.3225 5.35057 3.34422C5.46349 3.36593 5.58075 3.2921 5.60247 3.17483C5.63721 3.00111 5.65458 2.82304 5.65458 2.64931C5.65458 1.19002 4.46457 0 3.00527 0C1.54164 0 0.351615 1.19002 0.351615 2.65366C0.351615 3.4832 0.751184 4.28233 1.42003 4.77745Z" fill="#999999"/>
</svg>
