<svg width="10" height="10" viewBox="0 0 10 10" fill="none" xmlns="http://www.w3.org/2000/svg">
<g clip-path="url(#clip0_671_5814)">
<path d="M9.87456 0.71582L2.16211 8.42619C2.32885 8.50745 2.51172 8.55016 2.6972 8.55112H4.01806C4.12856 8.55082 4.23457 8.59476 4.31248 8.67313L5.0283 9.38854C5.41648 9.7794 5.94446 9.99941 6.49532 9.99984C6.72276 9.99962 6.94864 9.96234 7.16408 9.88949C7.9068 9.64599 8.44702 9.00214 8.55783 8.2284L9.9649 1.54491C10.0321 1.26643 10.0001 0.973263 9.87456 0.71582Z" fill="#999999"/>
<path d="M8.46692 0.032251L1.79968 1.43684C0.660481 1.59334 -0.136149 2.64373 0.0203586 3.78292C0.0821768 4.23281 0.289376 4.65018 0.610394 4.97137L1.3258 5.68678C1.404 5.76496 1.4479 5.87102 1.44782 5.9816V7.30247C1.44878 7.48794 1.49149 7.67084 1.57275 7.83756L9.28393 0.125125C9.03052 0.000590355 8.74179 -0.0322219 8.46692 0.032251Z" fill="#999999"/>
</g>
<defs>
<clipPath id="clip0_671_5814">
<rect width="10" height="10" fill="white"/>
</clipPath>
</defs>
</svg>
